<svg width="48" height="48" viewBox="0 0 48 48" fill="none" xmlns="http://www.w3.org/2000/svg">
	<linearGradient id="SVGID_1_" gradientUnits="userSpaceOnUse" x1="36.0515" y1="37.6563" x2="24.8347" y2="26.584" gradientTransform="matrix(1 0 0 -1 0 48.7087)">
		<stop offset="0" stop-color="#FFB301"/>
		<stop offset="1" stop-color="#FFC533"/>
	</linearGradient>
	<path d="M28,27c4.4,0,8-3.6,8-8s-3.6-8-8-8s-8,3.6-8,8S23.6,27,28,27z" fill="url(#SVGID_1_)"/>
	<path d="M27,4.5l0.5,3c0.3,2-2.6,2.5-3,0.5L24,5C23.7,3,26.6,2.5,27,4.5z M37.5,8l-1.7,2.5c-1.1,1.6-3.6-0.1-2.5-1.7
		l1.7-2.5C36.2,4.6,38.7,6.3,37.5,8z M17,9.5l2.5,1.7c1.6,1.1-0.1,3.6-1.7,2.5l-2.5-1.7C13.6,10.8,15.3,8.3,17,9.5z M38.3,24.4
		l2.5,1.7c1.6,1.1-0.1,3.6-1.7,2.5l-2.5-1.7C34.9,25.7,36.6,23.2,38.3,24.4z M42.5,18l-3,0.5c-2,0.3-2.5-2.6-0.5-3l3-0.5
		C44,14.7,44.5,17.6,42.5,18z" fill="#FFB300"/>
	<linearGradient id="SVGID_2_" gradientUnits="userSpaceOnUse" x1="18.6667" y1="30.7083" x2="18.6667" y2="8.7083" gradientTransform="matrix(1 0 0 -1 0 48.7087)">
		<stop offset="0" stop-color="#9FC7FF"/>
		<stop offset="1" stop-color="#9BC1F5"/>
	</linearGradient>
	<path d="M8.7,40c-4.4,0-8-3.6-8-8s3.6-8,8-8c0.8,0,1.6,0.1,2.4,0.4c1.1-3.7,4.6-6.4,8.6-6.4c5,0,9,4,9,9
		c0,0.5,0,0.9-0.1,1.4c0.7-0.2,1.4-0.4,2.1-0.4c3.3,0,6,2.7,6,6s-2.7,6-6,6H8.7z" fill="url(#SVGID_2_)"/>
	<radialGradient id="SVGID_3_" cx="-32.2406" cy="65.0798" r="1" gradientTransform="matrix(1.283271e-15 -20.9574 -6.6971 -4.100761e-16 446.9103 -693.376)" gradientUnits="userSpaceOnUse">
		<stop offset="0" stop-color="#486DA8" stop-opacity="0.4"/>
		<stop offset="1" stop-color="#486DA8" stop-opacity="0"/>
	</radialGradient>
	<path d="M10,26c0,5,4,9,9,9c4.5,0,8.2-3.3,8.9-7.6c0.7-0.2,1.4-0.4,2.1-0.4c3.3,0,6,2.7,6,6s-2.7,6-6,6H8
		c-4.4,0-8-3.6-8-8s3.6-8,8-8c0.8,0,1.6,0.1,2.4,0.4C10.1,24.2,10,25.1,10,26z" fill="url(#SVGID_3_)"/>
</svg>
