<svg width="48" height="48" viewBox="0 0 48 48" fill="none" xmlns="http://www.w3.org/2000/svg">
	<linearGradient id="SVGID_1_" gradientUnits="userSpaceOnUse" x1="11.8981" y1="44.4205" x2="11.8981" y2="34.0656" gradientTransform="matrix(0.9998 1.745309e-02 1.745309e-02 -0.9998 -1.2385 50.0213)">
		<stop offset="0" stop-color="#FFC229"/>
		<stop offset="1" stop-color="#FCB316"/>
	</linearGradient>
	<path d="M11.3,16.3c2.9,0,5.3-2.3,5.3-5.2c0-2.9-2.3-5.3-5.2-5.3S6.2,8.1,6.1,11C6.1,13.9,8.4,16.2,11.3,16.3z" fill="url(#SVGID_1_)"/>
	<path d="M15.8,2.4l-1.2,2.7c-0.4,0.9-1.7,0.3-1.3-0.6l1.2-2.7C14.9,0.9,16.1,1.5,15.8,2.4z M9,17.9l-1.2,2.6
		C7.4,21.4,6,20.9,6.4,20l1.2-2.7C8.1,16.5,9.4,17,9,17.9z M20.7,8.2L18,9.3c-0.9,0.4-1.4-1-0.5-1.3l2.7-1.1
		C21.1,6.5,21.6,7.8,20.7,8.2z M4.9,14.4l-2.7,1.1c-0.9,0.4-1.4-1-0.5-1.3l2.7-1.1C5.2,12.7,5.7,14,4.9,14.4z M20,15.8l-2.7-1.2
		c-0.9-0.4-0.3-1.7,0.6-1.3l2.7,1.2C21.4,14.9,20.9,16.2,20,15.8z M4.4,9L1.7,7.8C0.8,7.4,1.4,6.1,2.3,6.5L5,7.7
		C5.9,8.2,5.2,9.3,4.4,9z M8.2,1.6l1.1,2.7c0.4,0.9-1,1.4-1.3,0.5L6.8,2.1C6.5,1.3,7.9,0.8,8.2,1.6z M14.4,17.4l1.1,2.7
		c0.4,0.9-1,1.4-1.3,0.5l-1-2.7C12.7,17.1,14.1,16.6,14.4,17.4z" fill="#FCB316"/>
	<radialGradient id="SVGID_2_" cx="23.9437" cy="23.9847" r="23.8773" gradientUnits="userSpaceOnUse">
		<stop offset="0" stop-color="#263B58" stop-opacity="0.8"/>
		<stop offset="0.4178" stop-color="#293E5A" stop-opacity="0.4518"/>
		<stop offset="0.795" stop-color="#314560" stop-opacity="0.1373"/>
		<stop offset="0.9598" stop-color="#374B63" stop-opacity="0"/>
	</radialGradient>
	<circle cx="23.9" cy="24.1" r="23.9" fill="url(#SVGID_2_)"/>
</svg>
