<svg width="48" height="48" viewBox="0 0 48 48" fill="none" xmlns="http://www.w3.org/2000/svg">
	<path d="M3.8,7.4c1.6,0,3-1.3,3-3c0-1.6-1.3-3-3-3c-1.6,0-3,1.3-3,3C0.8,6.1,2.2,7.4,3.8,7.4z" fill="#8BCBF0"/>
	<path d="M11.8,46.7c2.3,1.8,4.9-0.9,3.1-3.1c0,0,0,0,0,0C12.7,41.8,10.1,44.4,11.8,46.7z" fill="#8BCBF0"/>
	<circle cx="45" cy="2.3" r="2.1" fill="#8BCBF0"/>
	<path d="M7.2,10.5l-1.6,2.7l3.8,2.2L5,17.3l1.3,2.9l6.5-2.9l2.6,1.5L11,20.8C10.4,21,10,21.6,10,22.2
		c0,0.6,0.4,1.2,0.9,1.4l4.4,1.9l-2.6,1.5l-6.5-2.9L5,27.2l4.4,1.9l-3.8,2.2L7.2,34l3.8-2.2l-0.5,4.7l3.1,0.3l0.8-7l2.6-1.5
		l-0.5,4.7c-0.1,0.6,0.2,1.2,0.8,1.5c0.2,0.1,0.5,0.2,0.8,0.2c0.3,0,0.7-0.1,0.9-0.3l3.9-2.8v3l-5.7,4.2l1.9,2.5l3.9-2.8V43h3.2
		v-4.4l3.9,2.8l1.9-2.5l-5.7-4.2v-3l3.9,2.8c0.5,0.4,1.2,0.4,1.7,0.1c0.5-0.3,0.8-0.9,0.8-1.5l-0.5-4.7l2.6,1.5l0.8,7l3.1-0.3
		l-0.5-4.7l3.8,2.2l1.6-2.7l-3.8-2.2l4.4-1.9l-1.3-2.9L36,27.1l-2.6-1.5l4.4-1.9c0.6-0.3,0.9-0.8,0.9-1.4c0-0.6-0.4-1.2-0.9-1.4
		l-4.4-1.9l2.6-1.5l6.5,2.9l1.3-2.9l-4.4-1.9l3.8-2.2l-1.6-2.7l-3.8,2.2l0.5-4.7l-3.1-0.3l-0.8,7l-2.6,1.5l0.5-4.7
		c0.1-0.6-0.2-1.2-0.8-1.5c-0.5-0.3-1.2-0.3-1.7,0.1l-3.9,2.8v-3l5.7-4.2L29.8,3l-3.9,2.8V1.5h-3.2v4.4L18.9,3l-1.9,2.5l5.7,4.2v3
		l-3.9-2.8c-0.5-0.4-1.2-0.4-1.7-0.1c-0.5,0.3-0.8,0.9-0.8,1.5l0.5,4.7l-2.6-1.5l-0.8-7l-3.1,0.3l0.5,4.7L7.2,10.5z M15.5,22.2
		l3.2-1.4l2.4,1.4l-2.5,1.4L15.5,22.2z M19.9,29.9l0.4-3.5l2.5-1.4v2.8L19.9,29.9z M28.8,29.9l-2.8-2.1V25l2.5,1.4L28.8,29.9z
		 M33.2,22.2L30,23.7l-2.4-1.4l2.4-1.4L33.2,22.2z M28.8,14.6l-0.4,3.5l-2.5,1.4v-2.8L28.8,14.6z M19.9,14.6l2.8,2.1v2.8l-2.5-1.4
		L19.9,14.6z" fill="#8BCBF0"/>
</svg>
