<svg xmlns="http://www.w3.org/2000/svg" fill="none" width="18" height="18" viewBox="0 0 18 18">
	<path class="st0" d="M17.32,14.98c0.3,0.3,0.48,0.71,0.48,1.17c0,0.91-0.74,1.65-1.65,1.65c-0.46,0-0.87-0.18-1.17-0.48l0,0
		l-4.84-4.84C9.17,13.06,8.02,13.4,6.8,13.4c-3.65,0-6.6-2.95-6.6-6.6c0-3.64,2.95-6.6,6.6-6.6c3.64,0,6.6,2.96,6.6,6.6
		c0,1.22-0.34,2.37-0.92,3.35L17.32,14.98L17.32,14.98z M6.8,1.85c-2.73,0-4.95,2.22-4.95,4.95s2.22,4.95,4.95,4.95
		c2.73,0,4.95-2.22,4.95-4.95S9.53,1.85,6.8,1.85z" fill="#8C8C8C"/>
</svg>
