<svg width="48" height="48" viewBox="0 0 48 48" fill="none" xmlns="http://www.w3.org/2000/svg">
	<linearGradient id="SVGID_1_" gradientUnits="userSpaceOnUse" x1="18.4999" y1="42.9583" x2="18.4999" y2="20.9583" gradientTransform="matrix(1 0 0 -1 0 48)">
		<stop offset="0" stop-color="#9FC7FF"/>
		<stop offset="0" stop-color="#1C5590"/>
	</linearGradient>
	<path class="st0" d="M8.5,27c-4.4,0-8-3.6-8-8s3.6-8,8-8c0.8,0,1.6,0.1,2.4,0.4C12,7.7,15.4,5,19.5,5c5,0,9,4,9,9
		c0,0.5,0,0.9-0.1,1.4c0.7-0.2,1.4-0.4,2.1-0.4c3.3,0,6,2.7,6,6s-2.7,6-6,6H8.5z" fill="url(#SVGID_1_)"/>
	<path d="M41.6,31.5c3.3,0,6-2.7,6-6s-2.7-6-6-6h-0.1c0-0.3,0.1-0.7,0.1-1c0-4.4-3.6-8-8-8c-3.5,0-6.5,2.2-7.6,5.4
		c-0.8-0.2-1.6-0.4-2.4-0.4c-4.4,0-8,3.6-8,8s3.6,8,8,8c0.7,0,1.4-0.1,2-0.3v0.3H41.6z" fill="#5194C1"/>
	<linearGradient id="SVGID_2_" gradientUnits="userSpaceOnUse" x1="20.4167" y1="27.5001" x2="20.4167" y2="5.5001" gradientTransform="matrix(1 0 0 -1 0 48)">
		<stop offset="0" stop-color="#9FC7FF"/>
		<stop offset="1" stop-color="#9BC1F5"/>
	</linearGradient>
	<path d="M10.4,42.5c-4.4,0-8-3.6-8-8s3.6-8,8-8c0.8,0,1.6,0.1,2.4,0.4c1.1-3.7,4.6-6.4,8.6-6.4c5,0,9,4,9,9
		c0,0.5,0,0.9-0.1,1.4c0.7-0.2,1.4-0.4,2.1-0.4c3.3,0,6,2.7,6,6s-2.7,6-6,6H10.4z" fill="url(#SVGID_2_)"/>
</svg>
