<?xml version="1.0" encoding="utf-8"?>
<!-- Generator: Adobe Illustrator 24.1.2, SVG Export Plug-In . SVG Version: 6.00 Build 0)  -->
<svg version="1.1" id="Layer_1" xmlns="http://www.w3.org/2000/svg" xmlns:xlink="http://www.w3.org/1999/xlink" x="0px" y="0px"
	 viewBox="0 0 48 48" style="enable-background:new 0 0 48 48;" xml:space="preserve">
<style type="text/css">
	.st0{fill:#32A6DE;}
</style>
<g id="图层_1">
	<path class="st0" d="M43.4,31.8l-1.8-1l1.2-0.7c3.2-1.9,0.3-6.9-2.9-5.1l-3.3,1.9c-0.3,0.1-0.5,0.3-0.8,0.5l-1.2-0.7v-5.6l1.2-0.7
		c0.3,0.2,0.6,0.3,0.8,0.5l3.3,1.9c3.2,1.9,6.2-3.1,2.9-5.1l-1.2-0.7l1.2-0.7l0.7-0.4c2.6-1.5,1.2-5.1-1.1-5.4c-0.2,0-0.4,0-0.6,0
		c-0.4,0-0.8,0.2-1.2,0.4L38.7,12c0-0.5,0-0.9,0-1.4c0-0.1,0-0.2,0-0.3c-0.2-3.1-4.6-3.4-5.6-0.9c-0.1,0.4-0.2,0.8-0.2,1.2v3.8
		c0,0.3,0,0.6,0,0.9v0l-1.5,0.9L29,14.9c-0.4-0.2-0.9-0.5-1.4-0.9c-0.2-0.2-0.5-0.3-0.8-0.5v-1.6c0.3-0.2,0.6-0.4,0.8-0.5L31,9.5
		c0.2-0.1,0.4-0.3,0.6-0.4c2.3-2.1-0.5-6.4-3.5-4.6l-1.2,0.7v-2c0-3.7-5.8-3.8-5.8,0v2.1l-1.2-0.7c-2.8-1.6-5.4,1.9-4,4.1
		c0.3,0.4,0.6,0.7,1,0.9l3.3,1.9c0.3,0.2,0.6,0.3,0.8,0.5v1.7c-0.7,0.4-1.3,0.9-1.9,1.2l-2.6,1.5L15,15.4c0-0.3,0-0.7,0-1v-3.8
		c0-3.7-5.8-3.8-5.8,0c0,0.5,0,0.9,0,1.4L7.3,11C4,9.1,1.1,14.1,4.3,16l1.9,1.1L5,17.8c-3.2,1.9-0.3,6.9,2.9,5.1l3.3-1.9
		c0.3-0.1,0.5-0.3,0.8-0.5l1.2,0.7v5.5l-1.2,0.7c-0.3-0.2-0.6-0.3-0.8-0.5l-3.3-1.9c-3.2-1.9-6.2,3.1-2.9,5.1l1.2,0.7l-1.8,1
		c-3.2,1.9-0.3,6.9,2.9,5.1l1.8-1c0,0.5,0,0.9,0,1.4c0,3.7,5.8,3.8,5.8,0v-3.8c0-0.3,0-0.6,0-1l0.9-0.5l3.1,1.8
		c0.6,0.3,1.3,0.9,2.1,1.3V36c-0.3,0.2-0.6,0.4-0.8,0.5l-3.3,1.9c-3.3,1.9-0.3,6.9,2.9,5.1l1.2-0.7V45c0,3.7,5.8,3.8,5.8,0v-2.2
		l1.2,0.7c3.3,1.9,6.2-3.2,2.9-5.1l-3.3-1.9c-0.3-0.2-0.6-0.3-0.8-0.5v-0.9c0.7-0.4,1.4-0.9,2-1.3L32,32l0.9,0.5c0,0.3,0,0.7,0,1
		v3.8c0,3.7,5.8,3.8,5.8,0c0-0.5,0-0.9,0-1.4l1.8,1C43.8,38.8,46.7,33.7,43.4,31.8z M24,29.9L24,29.9l-2.2-1.3L21,28.2l-1.9-1.1
		v-5.6l0.3-0.2l1.6-0.9l1.3-0.8l1.6-0.9l0,0l1.6,0.9l1.3,0.7l1.6,0.9l0.3,0.2v5.6l-1.9,1.1l-0.7,0.4L24,29.9z"/>
</g>
</svg>
