<svg width="48" height="48" viewBox="0 0 48 48" fill="none" xmlns="http://www.w3.org/2000/svg">
	<path d="M5.8,38l2.1-5c0.3-0.8,0-1.6-0.8-2s-1.6,0-2,0.8l-2.1,5c-0.3,0.8,0,1.6,0.8,2S5.5,38.8,5.8,38z M13.8,40l2.1-5
		c0.3-0.8,0-1.6-0.8-2s-1.6,0-2,0.8l-2.1,5c-0.3,0.8,0,1.6,0.8,2S13.5,40.8,13.8,40z" fill="#5377BB"/>
	<path d="M37.7,33.8l-2.1,5c-0.3,0.8,0,1.6,0.8,2c0.8,0.4,1.6,0,2-0.8l2.1-5c0.3-0.8,0-1.6-0.8-2S38,33,37.7,33.8z
		M29.7,31.8l-2.1,5c-0.3,0.8,0,1.6,0.8,2s1.6,0,2-0.8l2.1-5c0.3-0.8,0-1.6-0.8-2S30,31,29.7,31.8z" fill="#5377BB"/>
	<path d="M13.1,26.9c-5,0-9-4-9-9s4-9,9-9c0.9,0,1.8,0.1,2.7,0.4c1.3-4.1,5.1-7.2,9.7-7.2c5.6,0,10.1,4.5,10.1,10.1
		c0,0.5,0,1-0.1,1.6c0.7-0.3,1.5-0.4,2.4-0.4c3.7,0,6.8,3,6.8,6.8s-3,6.8-6.8,6.8H13.1V26.9z" fill="#425FAC"/>
	<radialGradient id="SVGID_1_" cx="0.3691" cy="-0.1917" r="1.1253" gradientTransform="matrix(1.283271e-15 -20.9574 6.6971 4.100761e-16 10.7515 -24.6966)" gradientUnits="userSpaceOnUse">
		<stop offset="0" stop-color="#486DA8" stop-opacity="0.4"/>
		<stop offset="1" stop-color="#486DA8" stop-opacity="0"/>
	</radialGradient>
	<path d="M15.3,12.3c0,5.6,4.5,10.1,10.1,10.1c5.1,0,9.3-3.7,10-8.6c0.7-0.3,1.5-0.4,2.4-0.4c3.7,0,6.8,3,6.8,6.8
		s-3,6.8-6.8,6.8H13.1c-5,0-9-4-9-9s4-9,9-9c0.9,0,1.8,0.1,2.7,0.4C15.5,10.3,15.3,11.2,15.3,12.3z" fill="url(#SVGID_1_)"/>
	<path d="M14.1,39.9" fill-rule="evenodd" clip-rule="evenodd" fill="#FEEA32"/>
	<path d="M23.6,24.8l7-19.2L14.1,29.2h6.3l-5.2,18.2l14.5-22.7H23.6z" fill-rule="evenodd" clip-rule="evenodd" fill="#FEEA32"/>
</svg>
